<?xml version="1.0" encoding="utf-8"?>
<!-- Generator: Adobe Illustrator 24.2.1, SVG Export Plug-In . SVG Version: 6.00 Build 0)  -->
<svg version="1.1" id="Layer_1" xmlns="http://www.w3.org/2000/svg" xmlns:xlink="http://www.w3.org/1999/xlink" x="0px" y="0px"
	 viewBox="0 0 499.3 497.7" style="enable-background:new 0 0 499.3 497.7;" xml:space="preserve">
<style type="text/css">
	.st0{fill:#0053D0;}
</style>
<path class="st0" d="M253.8,190.2c-31.3,0-56.7,25.4-56.7,56.7s25.4,56.7,56.7,56.7s56.7-25.4,56.7-56.7
	C310.5,215.6,285.1,190.3,253.8,190.2z"/>
<path class="st0" d="M320.6,102.4H187.1c-42.9,0-77.7,34.8-77.8,77.8v133.5c0,42.9,34.8,77.7,77.8,77.8h133.5
	c42.9,0,77.7-34.8,77.8-77.8V180.2C398.3,137.3,363.5,102.5,320.6,102.4z M253.8,333.6c-47.9,0-86.7-38.8-86.7-86.7
	c0-47.9,38.8-86.7,86.7-86.7c47.9,0,86.7,38.8,86.7,86.7C340.5,294.8,301.7,333.6,253.8,333.6z M349.1,173.4
	c-11.8,0-21.4-9.6-21.4-21.4c0-11.8,9.6-21.4,21.4-21.4c11.8,0,21.4,9.6,21.4,21.4C370.5,163.8,360.9,173.4,349.1,173.4
	C349.1,173.4,349.1,173.4,349.1,173.4L349.1,173.4z"/>
<g>
	<path class="st0" d="M493.7,118.6c0-8.8-0.8-17.6-2.4-26.3c-2-10.6-4.9-20.9-9.9-30.5c-5.3-10.1-12.2-19.3-20.4-27.1
		c-12.4-12.1-27.7-20.9-44.4-25.4c-15.4-4.2-31.2-5-47-5c-0.1-0.1-0.1-0.2-0.1-0.2H129.7c0,0.1,0,0.2,0,0.2c-9,0.2-18,0.1-26.9,1.2
		C93,6.6,83.3,8.8,74,12c-14.5,5.3-27.5,13.9-38.2,25.1c-12.2,12.4-21,27.8-25.5,44.6c-4.1,15.3-5,30.9-5,46.6L5.1,369.1l0,0
		c0.3,10.9,0.4,21.8,2.2,32.6c1.9,11.4,4.7,22.6,10,32.9c7.1,13.9,17.1,26.1,29.4,35.6c8.8,7,18.8,12.4,29.4,16
		c15.7,5.1,31.9,7,48.4,7.1c10.3,0.1,20.5,0.3,30.8,0.3c74.6-0.3,149.1,0.5,223.7-0.5c9.9-0.2,19.7-1.3,29.3-3.1
		c18.3-3.2,35.3-11.5,49.2-23.9c16.4-14.6,27.5-32.5,32.5-54.1c3.3-14.1,4.1-28.5,4.2-42.8v-2.9
		C494.2,365.1,493.8,121.9,493.7,118.6z M431,318.2c-0.1,61.8-50.2,111.9-112,112H180.3c-61.8-0.1-111.9-50.2-112-112V179.5
		c0.1-61.8,50.2-111.9,112-112H319c61.8,0.1,111.9,50.2,112,112L431,318.2z"/>
	<g>
		<path class="st0" d="M0,0v497.7h499.3V0H0z M485,364.5c-0.1,13.8-0.9,27.6-4.1,41.2c-4.8,20.8-15.5,38-31.2,52.1
			c-13.3,11.9-29.7,19.9-47.3,23c-9.3,1.8-18.8,2.8-28.2,3c-71.7,1-143.5,0.1-215.2,0.4c-9.9,0-19.7-0.2-29.6-0.3
			c-15.8-0.1-31.4-2-46.5-6.8c-10.3-3.4-19.9-8.6-28.3-15.3c-11.9-9.2-21.5-20.9-28.3-34.3c-5.1-10-7.8-20.7-9.6-31.7
			c-1.8-10.4-1.8-20.9-2.1-31.4l0.2-231.7c0-15.1,0.9-30.1,4.8-44.8c4.4-16.2,12.8-31,24.6-42.9c10.3-10.7,22.8-19,36.8-24.1
			c9-3.1,18.2-5.2,27.7-6.2c8.6-1.1,17.3-1,25.9-1.2c0-0.1,0-0.1,0-0.2H365c0,0.1,0,0.2,0.1,0.2c15.2,0,30.4,0.8,45.2,4.8
			c16.1,4.3,30.8,12.7,42.8,24.4c7.9,7.6,14.5,16.4,19.6,26.1c4.9,9.2,7.6,19.1,9.6,29.3c1.5,8.3,2.3,16.8,2.3,25.3
			c0,3.1,0.4,237.1,0.5,238.2V364.5z"/>
	</g>
</g>
</svg>
